<svg width="419" height="37" viewBox="0 0 419 37" fill="none" xmlns="http://www.w3.org/2000/svg">
<path opacity="0.5" d="M17.15 30V14.05C17.15 9.1 16.16 6.9 13.135 6.9C9.835 6.9 8.075 9.375 8.075 15.15V30H0.375V1.4H7.8V6.075H8.075C8.075 6.075 10 0.574999 15.775 0.574999C20.395 0.574999 22.87 2.775 23.97 6.13L24.025 6.075H24.3C24.3 6.075 26.775 0.574999 32.55 0.574999C39.7 0.574999 41.625 5.8 41.625 12.4V30H33.925V14.05C33.925 9.1 32.935 6.9 29.91 6.9C26.61 6.9 24.85 9.375 24.85 15.15V30H17.15ZM44.3643 39.9V1.4H51.7893V5.25H52.0643C52.0643 5.25 54.5393 0.574999 60.8643 0.574999C69.1143 0.574999 73.2393 7.725 73.2393 15.7C73.2393 23.675 69.1143 30.825 60.8643 30.825C54.8143 30.825 52.3393 26.975 52.3393 26.975H52.0643V39.9H44.3643ZM51.7893 15.7C51.7893 20.87 53.9893 25.05 58.6643 25.05C63.3393 25.05 65.5393 20.87 65.5393 15.7C65.5393 10.53 63.3393 6.35 58.6643 6.35C53.9893 6.35 51.7893 10.53 51.7893 15.7ZM75.4564 15.7C75.4564 7.34 80.3514 0.574999 89.7564 0.574999C99.1614 0.574999 103.506 7.34 103.506 15.7C103.506 16.36 103.451 17.35 103.451 17.35H83.2114C83.5414 21.75 85.4114 25.05 90.0314 25.05C94.7064 25.05 95.5314 20.65 95.5314 20.65H103.231C103.231 20.65 101.581 30.825 89.7564 30.825C80.1314 30.825 75.4564 24.06 75.4564 15.7ZM89.7564 6.35C85.9614 6.35 84.0914 8.88 83.4314 12.4H95.5864C95.0914 8.88 93.5514 6.35 89.7564 6.35ZM105.971 30V1.4H113.671V12.95L123.846 1.4H132.921L122.141 12.565L133.471 30H124.066L116.806 18.065L113.671 21.31V30H105.971ZM161.274 1.4V30H153.849V25.325H153.574C153.574 25.325 151.099 30.825 144.774 30.825C136.799 30.825 134.599 25.6 134.599 19V1.4H142.299V17.35C142.299 22.3 143.674 24.5 147.249 24.5C151.374 24.5 153.574 22.025 153.574 16.25V1.4H161.274ZM162.657 15.7V13.5H211.057V15.7H162.657ZM239.101 1.4V30H231.676V25.325H231.401C231.401 25.325 228.926 30.825 222.601 30.825C214.626 30.825 212.426 25.6 212.426 19V1.4H220.126V17.35C220.126 22.3 221.501 24.5 225.076 24.5C229.201 24.5 231.401 22.025 231.401 16.25V1.4H239.101ZM271.847 30V14.05C271.847 9.1 270.857 6.9 267.832 6.9C264.532 6.9 262.772 9.375 262.772 15.15V30H255.072V1.4H262.497V6.075H262.772C262.772 6.075 264.697 0.574999 270.472 0.574999C275.092 0.574999 277.567 2.775 278.667 6.13L278.722 6.075H278.997C278.997 6.075 281.472 0.574999 287.247 0.574999C294.397 0.574999 296.322 5.8 296.322 12.4V30H288.622V14.05C288.622 9.1 287.632 6.9 284.607 6.9C281.307 6.9 279.547 9.375 279.547 15.15V30H271.847ZM303.737 15.7C303.737 20.87 305.717 25.05 310.612 25.05C315.507 25.05 317.487 20.87 317.487 15.7C317.487 10.53 315.507 6.35 310.612 6.35C305.717 6.35 303.737 10.53 303.737 15.7ZM296.037 15.7C296.037 7.34 301.207 0.574999 310.612 0.574999C320.017 0.574999 325.187 7.34 325.187 15.7C325.187 24.06 320.017 30.825 310.612 30.825C301.207 30.825 296.037 24.06 296.037 15.7ZM349.954 1.4V30H342.254V19H334.829C326.854 19 324.654 17.075 324.654 10.75V1.4H332.354V9.925C332.354 13.5 333.454 13.5 336.754 13.5H342.254V1.4H349.954ZM352.697 30V1.4H360.397V12.95L370.572 1.4H379.647L368.867 12.565L380.197 30H370.792L363.532 18.065L360.397 21.31V30H352.697ZM388.709 10.2H381.009C381.449 2.885 387.334 0.574999 393.934 0.574999C400.809 0.574999 406.309 3.05 406.309 10.475V30H398.609V24.5H398.334C398.334 24.5 396.574 30.825 389.259 30.825C384.034 30.825 380.184 28.405 380.184 23.125C380.184 17.79 384.584 15.37 389.314 14.16C394.099 12.95 398.609 12.565 398.609 9.375C398.609 7.12 396.959 5.8 393.934 5.8C390.634 5.8 388.819 7.12 388.709 10.2ZM398.609 15.59C397.344 16.745 394.759 17.35 392.559 17.9C390.084 18.505 387.994 19.77 387.994 22.3C387.994 24.5 389.534 25.875 392.009 25.875C397.234 25.875 398.609 19.825 398.609 15.59ZM409.315 26.15C409.315 23.73 411.295 21.75 413.715 21.75C416.135 21.75 418.115 23.73 418.115 26.15C418.115 28.57 416.135 30.55 413.715 30.55C411.295 30.55 409.315 28.57 409.315 26.15Z" fill="white"/>
</svg>
