<svg width="623" height="56" viewBox="0 0 623 56" xmlns="http://www.w3.org/2000/svg">
<path d="M24.387 42V19.67C24.387 12.74 23.001 9.66 18.766 9.66C14.146 9.66 11.682 13.125 11.682 21.21V42H0.901959V1.96H11.297V8.505H11.682C11.682 8.505 14.377 0.804998 22.462 0.804998C28.93 0.804998 32.395 3.885 33.935 8.582L34.012 8.505H34.397C34.397 8.505 37.862 0.804998 45.947 0.804998C55.957 0.804998 58.652 8.12 58.652 17.36V42H47.872V19.67C47.872 12.74 46.486 9.66 42.251 9.66C37.631 9.66 35.167 13.125 35.167 21.21V42H24.387ZM62.4869 55.86V1.96H72.8819V7.35H73.2669C73.2669 7.35 76.7319 0.804998 85.5869 0.804998C97.1369 0.804998 102.912 10.815 102.912 21.98C102.912 33.145 97.1369 43.155 85.5869 43.155C77.1169 43.155 73.6519 37.765 73.6519 37.765H73.2669V55.86H62.4869ZM72.8819 21.98C72.8819 29.218 75.9619 35.07 82.5069 35.07C89.0519 35.07 92.1319 29.218 92.1319 21.98C92.1319 14.742 89.0519 8.89 82.5069 8.89C75.9619 8.89 72.8819 14.742 72.8819 21.98ZM106.016 21.98C106.016 10.276 112.869 0.804998 126.036 0.804998C139.203 0.804998 145.286 10.276 145.286 21.98C145.286 22.904 145.209 24.29 145.209 24.29H116.873C117.335 30.45 119.953 35.07 126.421 35.07C132.966 35.07 134.121 28.91 134.121 28.91H144.901C144.901 28.91 142.591 43.155 126.036 43.155C112.561 43.155 106.016 33.684 106.016 21.98ZM126.036 8.89C120.723 8.89 118.105 12.432 117.181 17.36H134.198C133.505 12.432 131.349 8.89 126.036 8.89ZM148.736 42V1.96H159.516V18.13L173.761 1.96H186.466L171.374 17.591L187.236 42H174.069L163.905 25.291L159.516 29.834V42H148.736ZM226.16 1.96V42H215.765V35.455H215.38C215.38 35.455 211.915 43.155 203.06 43.155C191.895 43.155 188.815 35.84 188.815 26.6V1.96H199.595V24.29C199.595 31.22 201.52 34.3 206.525 34.3C212.3 34.3 215.38 30.835 215.38 22.75V1.96H226.16ZM246.595 21.98V18.9H314.355V21.98H246.595ZM372.114 1.96V42H361.719V35.455H361.334C361.334 35.455 357.869 43.155 349.014 43.155C337.849 43.155 334.769 35.84 334.769 26.6V1.96H345.549V24.29C345.549 31.22 347.474 34.3 352.479 34.3C358.254 34.3 361.334 30.835 361.334 22.75V1.96H372.114ZM417.959 42V19.67C417.959 12.74 416.573 9.66 412.338 9.66C407.718 9.66 405.254 13.125 405.254 21.21V42H394.474V1.96H404.869V8.505H405.254C405.254 8.505 407.949 0.804998 416.034 0.804998C422.502 0.804998 425.967 3.885 427.507 8.582L427.584 8.505H427.969C427.969 8.505 431.434 0.804998 439.519 0.804998C449.529 0.804998 452.224 8.12 452.224 17.36V42H441.444V19.67C441.444 12.74 440.058 9.66 435.823 9.66C431.203 9.66 428.739 13.125 428.739 21.21V42H417.959ZM462.604 21.98C462.604 29.218 465.376 35.07 472.229 35.07C479.082 35.07 481.854 29.218 481.854 21.98C481.854 14.742 479.082 8.89 472.229 8.89C465.376 8.89 462.604 14.742 462.604 21.98ZM451.824 21.98C451.824 10.276 459.062 0.804998 472.229 0.804998C485.396 0.804998 492.634 10.276 492.634 21.98C492.634 33.684 485.396 43.155 472.229 43.155C459.062 43.155 451.824 33.684 451.824 21.98ZM527.308 1.96V42H516.528V26.6H506.133C494.968 26.6 491.888 23.905 491.888 15.05V1.96H502.668V13.895C502.668 18.9 504.208 18.9 508.828 18.9H516.528V1.96H527.308ZM531.149 42V1.96H541.929V18.13L556.174 1.96H568.879L553.787 17.591L569.649 42H556.482L546.318 25.291L541.929 29.834V42H531.149ZM581.566 14.28H570.786C571.402 4.039 579.641 0.804998 588.881 0.804998C598.506 0.804998 606.206 4.27 606.206 14.665V42H595.426V34.3H595.041C595.041 34.3 592.577 43.155 582.336 43.155C575.021 43.155 569.631 39.767 569.631 32.375C569.631 24.906 575.791 21.518 582.413 19.824C589.112 18.13 595.426 17.591 595.426 13.125C595.426 9.968 593.116 8.12 588.881 8.12C584.261 8.12 581.72 9.968 581.566 14.28ZM595.426 21.826C593.655 23.443 590.036 24.29 586.956 25.06C583.491 25.907 580.565 27.678 580.565 31.22C580.565 34.3 582.721 36.225 586.186 36.225C593.501 36.225 595.426 27.755 595.426 21.826ZM610.414 36.61C610.414 33.222 613.186 30.45 616.574 30.45C619.962 30.45 622.734 33.222 622.734 36.61C622.734 39.998 619.962 42.77 616.574 42.77C613.186 42.77 610.414 39.998 610.414 36.61Z"/>
</svg>
